<svg id="Layer_1" data-name="Layer 1" xmlns="http://www.w3.org/2000/svg" viewBox="0 0 25.5 16.5"><path d="M25.5,16.5H0V12.8c0-2.42,3.48-3.71,6.2-4.1A4.51,4.51,0,0,1,3.27,4.5a4.57,4.57,0,0,1,9.14,0A4.51,4.51,0,0,1,9.48,8.7a14.15,14.15,0,0,1,3.27.87A14.42,14.42,0,0,1,16,8.7a4.51,4.51,0,0,1-2.93-4.2,4.57,4.57,0,0,1,9.14,0A4.51,4.51,0,0,1,19.3,8.7c2.72.39,6.2,1.68,6.2,4.1ZM15.08,15H24V12.8c0-1.51-3.84-2.73-6.34-2.73a12.81,12.81,0,0,0-3.61.62,5,5,0,0,1,.88,1.94A7.16,7.16,0,0,1,15.08,15ZM1.5,15H13.57a5.76,5.76,0,0,0-.1-2,3.3,3.3,0,0,0-1.05-1.85L12.31,11a12.39,12.39,0,0,0-4.47-.95c-2.5,0-6.34,1.22-6.34,2.73ZM17.66,1.5a3,3,0,0,0-3.07,3,3.07,3.07,0,0,0,6.14,0A3,3,0,0,0,17.66,1.5Zm-9.82,0a3,3,0,0,0-3.07,3,3.07,3.07,0,0,0,6.14,0A3,3,0,0,0,7.84,1.5Z"/></svg>