<svg viewBox="0 0 20 20" xmlns="http://www.w3.org/2000/svg">
<path d="M15.718 8.72501C15.6088 8.73563 15.4991 8.74119 15.3894 8.74168C14.797 8.74176 14.2139 8.59432 13.6927 8.31265C13.1715 8.03099 12.7287 7.62398 12.4042 7.12835V12.6222C12.4042 13.4252 12.166 14.2103 11.7198 14.878C11.2737 15.5458 10.6395 16.0662 9.89756 16.3735C9.1556 16.6809 8.33918 16.7613 7.55152 16.6046C6.76387 16.4479 6.04036 16.0612 5.47249 15.4933C4.90462 14.9255 4.5179 14.202 4.36123 13.4143C4.20455 12.6267 4.28496 11.8102 4.59229 11.0683C4.89962 10.3263 5.42006 9.69216 6.0878 9.24599C6.75554 8.79982 7.5406 8.56168 8.34368 8.56168C8.42844 8.56168 8.5113 8.5693 8.59463 8.57454V10.5755C8.5113 10.5655 8.4294 10.5503 8.34368 10.5503C7.79405 10.5503 7.26693 10.7686 6.87829 11.1572C6.48964 11.5459 6.2713 12.073 6.2713 12.6226C6.2713 13.1723 6.48964 13.6994 6.87829 14.088C7.26693 14.4767 7.79405 14.695 8.34368 14.695C9.48844 14.695 10.4994 13.7931 10.4994 12.6483L10.5194 3.31787H12.4337C12.5211 4.14963 12.8982 4.92417 13.4989 5.50608C14.0996 6.08799 14.8858 6.44023 15.7199 6.5012V8.72501"/>
</svg>
