<svg id="Layer_1" data-name="Layer 1" xmlns="http://www.w3.org/2000/svg" viewBox="0 0 13.27 7.57"><path d="M11.83,5.23a6,6,0,0,1,1.32,1.52c.44.73-.48.79-.48.79l-1.78,0A1.24,1.24,0,0,1,10,7.3c-.66-.46-1.3-1.65-1.78-1.49S7.76,7,7.76,7a.4.4,0,0,1-.11.26.48.48,0,0,1-.37.09H6.49A4.31,4.31,0,0,1,3.21,6,21.37,21.37,0,0,1,0,.78S0,.57,0,.45.43.34.43.34h1.9a.48.48,0,0,1,.3.11A.6.6,0,0,1,2.8.69a12.09,12.09,0,0,0,.71,1.46c.8,1.37,1.16,1.67,1.41,1.52.42-.21.3-1.93.3-1.93A1.84,1.84,0,0,0,5,.84a1,1,0,0,0-.59-.3c-.11,0,.07-.26.29-.37A4.44,4.44,0,0,1,6.38,0a3.24,3.24,0,0,1,.93.09c.66.16.43.77.43,2.23,0,.47-.06,1.12.26,1.35.14.09.5,0,1.39-1.5A10.87,10.87,0,0,0,10.12.61.6.6,0,0,1,10.3.4a.63.63,0,0,1,.26-.06h2s.61-.06.7.2-.22,1-1,2C10.87,4.36,10.72,4.2,11.83,5.23Z"/></svg>