<svg id="Layer_1" data-name="Layer 1" xmlns="http://www.w3.org/2000/svg" xmlns:xlink="http://www.w3.org/1999/xlink" viewBox="0 0 100 30"><defs><style>.cls-1{fill:none;}.cls-2{clip-path:url(#clip-path);}.cls-3{fill:#fff;}.cls-3,.cls-4{fill-rule:evenodd;}.cls-4{fill:#f9cc46;}</style><clipPath id="clip-path"><rect class="cls-1" width="100" height="30"/></clipPath></defs><g class="cls-2"><path class="cls-3" d="M53.76,11.05c.24.26,2.41,6.25,2.63,7a11,11,0,0,0,1,2.27c.75.17.82-.61,1-1.23,1.23-3.36,3.1-8.26,4-11.56.65-1.6.71-2-.47-2s-1,.8-1.51,1.83c-.41,2-2,6.13-2.58,8,0,.25,0,.25-.29.25-1-2.84-2.11-6.32-3.22-9.13-.29-.55-.82-.67-1.17.56-.59,2-1.41,4.28-2,6.18,0,0-.77,2.39-.82,2.51a7.51,7.51,0,0,1-.88-2.2c-.88-2.27-1.64-4.71-2.39-7-.18-.42-.18-.68-.59-.93a2.38,2.38,0,0,0-1.29-.12C44,5.7,44.75,6.67,45,7.4c1.41,4,3,8.76,4.55,12.55a.61.61,0,0,0,.18.24.5.5,0,0,0,.26.11.44.44,0,0,0,.28,0,.5.5,0,0,0,.23-.18C50.72,19.62,53.59,11.05,53.76,11.05Z"/><path class="cls-3" d="M.22,5.74a1.17,1.17,0,0,0,.06.74C.52,7.52-.19,19.33,0,19.8A2.72,2.72,0,0,0,1.82,20c.28-.31.17-.61.17-1.1,0-2.08.17-4.1.17-6.24.07-.8.13-1.35.13-1.84s0-.43.11-.55a32,32,0,0,1,2.15,3.63c.36.73,1,1.84,1.52,2.7.7,1.34,1.06.42,1.23.11.41-.54,3.58-6.36,3.8-6.48.21.24.21,6.05.21,6.48,0,3.19-.35,3.5,1.57,3.36.6,0,.66-.49.6-1V15.78c-.16-2.64-.27-5.64-.27-8.26,0-.31.11-1.48.11-1.66a1.09,1.09,0,0,0-1.41-.25c-.41.25-.52.8-.82,1.17C9.9,9,8.3,11.48,7.18,13.57c-.41.74-.41.49-.76,0C5.66,12.4,4.66,10.39,4,9.22L2.56,6.78a5.08,5.08,0,0,0-.75-1.17C1.41,5.31.63,5.55.22,5.74Z"/><path class="cls-3" d="M74.88,12.59a3.89,3.89,0,0,1,1.73-.84,3.75,3.75,0,0,1,1.91.1c1.87.86,2.11,3.75,1.29,5.15a3.08,3.08,0,0,1-1.44,1.21,2.9,2.9,0,0,1-1.84.11,4.1,4.1,0,0,1-1.65-.74Zm0-2.08c-.08-1.62-.08-3.23,0-4.84,0-.67-.22-.79-.82-.55-1.41.62-1.41.37-1.21,1.72.11.68,0,8.57,0,9.68,0,2.19-.3,2.69,2.74,3.61a6.3,6.3,0,0,0,2.63,0,6.4,6.4,0,0,0,2.42-1.06c3-2.56,2.17-9.79-3.28-9.24A11.09,11.09,0,0,0,76,10c-.19.06-.88.49-1,.49Z"/><path class="cls-3" d="M33.63,19.94a6,6,0,0,0,.18-2.39,17.52,17.52,0,0,1,0-2.51c.17,0,.36.31.71.68s3.27,3.55,3.73,3.9a1.37,1.37,0,0,0,.58.34,1.2,1.2,0,0,0,.65,0c.42,0,1.07,0,1.29-.29,0-.43-.82-1.11-1.17-1.48s-.81-.85-1.22-1.35a25.59,25.59,0,0,1-2.52-2.68c0-.13,3.21-3,3.81-3.49.23-.25.47-.31.41-.68a3.57,3.57,0,0,0-2.24,0c-.28.13-2.22,2-2.74,2.46-.17.17-1.18,1.28-1.29,1.22-.17-.56,0-8.21-.11-8.64s-2.11.25-2.05,1a8.39,8.39,0,0,1,.17,1.58V18.22c0,.37-.12,1.48.12,1.66A4,4,0,0,0,33.63,19.94Z"/><path class="cls-3" d="M18.39,14.92c.65-.18,2.83.37,2.93,1a10.8,10.8,0,0,1,0,2c-.41.55-3.23,1.65-4.16-.31a2.09,2.09,0,0,1-.19-.89,2.05,2.05,0,0,1,.19-.88,1.7,1.7,0,0,1,.53-.57A1.66,1.66,0,0,1,18.39,14.92Zm3-.74a5.1,5.1,0,0,0-1.82-.79,6.48,6.48,0,0,0-2.4.18,3.22,3.22,0,0,0-1.66,1.18,3.45,3.45,0,0,0-.67,2,3.49,3.49,0,0,0,.6,2A3.17,3.17,0,0,0,17.05,20a5.11,5.11,0,0,0,3.45,0c.24-.11.71-.43.88-.48s.24.42.46.54a2.29,2.29,0,0,0,1.59-.29c.29-.3.35-.25.17-.68a3.16,3.16,0,0,1-.29-1.84V12.83a2.66,2.66,0,0,0-.41-1.78c-1.11-2.32-7.85-1.4-7.31.57S17,10.94,20,11.31c1.6.17,1.43,1.77,1.43,2.87Z"/><path class="cls-3" d="M90.63,13.88H85.78a2.66,2.66,0,0,1,.75-1.6,2.75,2.75,0,0,1,1.64-.72,2.32,2.32,0,0,1,.94.11,2.41,2.41,0,0,1,.81.49,2.16,2.16,0,0,1,.56.77A2.21,2.21,0,0,1,90.63,13.88Zm-5,1.58c.35-.17,5.66,0,6.62,0s.53-3.3-1.23-4.64a4.59,4.59,0,0,0-2.46-1A4.66,4.66,0,0,0,86,10.4a4.82,4.82,0,0,0-1.89,1.91A5.15,5.15,0,0,0,83.47,15a5.23,5.23,0,0,0,.59,2.6,5,5,0,0,0,1.77,1.93c1.57,1.11,5.79,1,6.31-.67.66-2.21-.87-1-1.41-.74a5,5,0,0,1-1.42.37A3,3,0,0,1,85.65,15.46Z"/><path class="cls-3" d="M64.42,13.88a2.56,2.56,0,0,1,.77-1.65,2.33,2.33,0,0,1,1.63-.67,2.16,2.16,0,0,1,2.39,2.32Zm-.25,1.48h6.57c.76,0,.64-.49.58-1.09A5,5,0,0,0,70.61,12a4.64,4.64,0,0,0-1.71-1.64,4.37,4.37,0,0,0-2.26-.54,4.3,4.3,0,0,0-2.22.69,4.88,4.88,0,0,0-1.79,1.95,5.24,5.24,0,0,0-.55,2.64,4.88,4.88,0,0,0,.56,2.6,4.57,4.57,0,0,0,1.83,1.84c2,1.29,5.92.74,6.27-.72,0-.43.28-1.48-.35-1.23a7.68,7.68,0,0,1-2.48.93,3.63,3.63,0,0,1-1.39-.09,3.52,3.52,0,0,1-1.24-.65C64.77,17.3,64,16,64.17,15.36Z"/><path class="cls-3" d="M96,20c.36-.37.3-.54.3-1.09V17.42c0-2-.35-5.2,1.81-5.68.47-.12.58.29,1.17.17A2.86,2.86,0,0,0,100,10.7c0-.93-1.42-1.11-2.7-.5-.41.19-.75.85-1,.91,0-.54.11-.78-.24-1.27a3.13,3.13,0,0,0-1.29.43c-.58.3-.69.3-.58,1s0,5.81,0,7C94.2,20.19,94.2,20.13,96,20Z"/><path class="cls-3" d="M27,19.94v-.12a27.44,27.44,0,0,0,.13-4.53c0-1.17.28-3.07,1.52-3.44,1-.37,1,.61,1.69,0,1.52-1.65-.52-2.32-1.75-1.77s-1.06,1-1.42,1.09a4.33,4.33,0,0,1,0-.72c0-.31-.12-.31-.24-.49a2.33,2.33,0,0,0-1.28.37c-.58.24-.77.3-.58,1a22.82,22.82,0,0,1,.11,3.41v3.38C25.27,20,25,20.13,27,19.94Z"/><path class="cls-4" d="M53.35,21.9a31.24,31.24,0,0,0-6.85,1.71c-.69.31-1.41.48-2.11.8-1.41.54-2.74,1-4.14,1.59-.47.18-3.81,1.22-4.39,1.35-2.83.73-7.07,1.58-9.77.3-1.29-.67-1.42,1.4,1.51,2.14a11.35,11.35,0,0,0,5.15-.23c1.42-.31,3.11-.86,4.46-1.29s2.93-.92,4.38-1.35c.36-.13.64-.25,1-.37l2.16-.68c.42-.12.71-.3,1.07-.43l2.23-.55a8.74,8.74,0,0,0,1.06-.37,40.26,40.26,0,0,1,9-1,20.23,20.23,0,0,1,2.63.31c1.41.18,1.1-.61.17-1.11A14.23,14.23,0,0,0,53.35,21.9Z"/></g></svg>